<mxfile host="app.diagrams.net" modified="2021-02-24T10:14:03.489Z" agent="5.0 (Macintosh; Intel Mac OS X 10_15_6) AppleWebKit/605.1.15 (KHTML, like Gecko) Version/14.0.3 Safari/605.1.15" etag="OU-YS1lpFJgT0EQjyB9n" version="14.4.2" type="github">
  <diagram id="8dJM3-y5aFX-OoERODtV" name="Page-1">
    <mxGraphModel dx="695" dy="748" grid="1" gridSize="10" guides="1" tooltips="1" connect="1" arrows="1" fold="1" page="1" pageScale="1" pageWidth="827" pageHeight="1169" math="0" shadow="0">
      <root>
        <mxCell id="0" />
        <mxCell id="1" parent="0" />
        <mxCell id="uVpV1PwvmUithXza_6q2-1" value="«abstract»&lt;br&gt;&lt;b&gt;Objekt&lt;/b&gt;" style="html=1;fillColor=#fff2cc;strokeColor=#d6b656;" vertex="1" parent="1">
          <mxGeometry x="360" y="250" width="110" height="50" as="geometry" />
        </mxCell>
        <mxCell id="uVpV1PwvmUithXza_6q2-5" style="edgeStyle=orthogonalEdgeStyle;rounded=0;orthogonalLoop=1;jettySize=auto;html=1;exitX=0.5;exitY=0;exitDx=0;exitDy=0;entryX=0.462;entryY=1.054;entryDx=0;entryDy=0;entryPerimeter=0;" edge="1" parent="1" source="uVpV1PwvmUithXza_6q2-3" target="uVpV1PwvmUithXza_6q2-1">
          <mxGeometry relative="1" as="geometry" />
        </mxCell>
        <mxCell id="uVpV1PwvmUithXza_6q2-3" value="Hindernis" style="html=1;fillColor=#f8cecc;strokeColor=#b85450;" vertex="1" parent="1">
          <mxGeometry x="220" y="370" width="110" height="50" as="geometry" />
        </mxCell>
        <mxCell id="uVpV1PwvmUithXza_6q2-6" style="edgeStyle=orthogonalEdgeStyle;rounded=0;orthogonalLoop=1;jettySize=auto;html=1;exitX=0.5;exitY=0;exitDx=0;exitDy=0;entryX=0.456;entryY=1.04;entryDx=0;entryDy=0;entryPerimeter=0;" edge="1" parent="1" source="uVpV1PwvmUithXza_6q2-4" target="uVpV1PwvmUithXza_6q2-1">
          <mxGeometry relative="1" as="geometry">
            <mxPoint x="410" y="310" as="targetPoint" />
          </mxGeometry>
        </mxCell>
        <mxCell id="uVpV1PwvmUithXza_6q2-4" value="Schmutz" style="html=1;fillColor=#d5e8d4;strokeColor=#82b366;" vertex="1" parent="1">
          <mxGeometry x="490" y="370" width="110" height="50" as="geometry" />
        </mxCell>
      </root>
    </mxGraphModel>
  </diagram>
</mxfile>
